<svg width="23" height="12" viewBox="0 0 23 12" fill="none" xmlns="http://www.w3.org/2000/svg">
<path d="M-1.90735e-06 6.02597C0.000510031 7.58509 0.622322 9.08227 1.73275 10.198C2.84317 11.3138 4.35427 11.9598 5.94359 11.9982C7.53291 12.0366 9.07459 11.4643 10.2397 10.4034C11.4047 9.3426 12.1009 7.87724 12.1796 6.32003C11.8274 6.39338 11.4895 6.45873 11.1659 6.51607C11.0417 7.75106 10.4538 8.89668 9.51644 9.73027C8.57904 10.5639 7.3591 11.0259 6.09371 11.0266C4.82831 11.0272 3.60786 10.5665 2.66955 9.73389C1.73123 8.90128 1.14208 7.75629 1.01659 6.52143C0.891108 5.28658 1.23825 4.05008 1.99056 3.05224C2.74286 2.0544 3.84659 1.3665 5.08723 1.12224C6.32787 0.877984 7.6168 1.09481 8.70351 1.73058C9.79023 2.36635 10.5971 3.37565 10.9673 4.56232C11.2855 4.50431 11.6126 4.44029 11.9485 4.36828C11.5415 2.9845 10.6387 1.7914 9.40608 1.0085C8.17349 0.225601 6.69407 -0.0944245 5.24002 0.107305C3.78597 0.309035 2.45512 1.01895 1.49233 2.10643C0.529546 3.1939 -0.000400177 4.58578 -1.90735e-06 6.02597ZM6.09356 2.06711C6.933 2.06814 7.75127 2.32552 8.43472 2.80351C9.11817 3.2815 9.63286 3.95636 9.90731 4.73435C9.55238 4.78637 9.21378 4.83038 8.89353 4.86772C8.61503 4.21861 8.11114 3.68721 7.47119 3.36774C6.83125 3.04827 6.09662 2.96139 5.39759 3.12249C4.69855 3.2836 4.08028 3.68228 3.65241 4.24785C3.22455 4.81341 3.01475 5.5093 3.06021 6.21211C3.10567 6.91492 3.40346 7.57923 3.90077 8.08723C4.39808 8.59523 5.06277 8.9141 5.77696 8.98728C6.49115 9.06047 7.2087 8.88324 7.80234 8.48702C8.39599 8.09081 8.82737 7.50122 9.01999 6.82281C9.3518 6.78613 9.69993 6.74212 10.0698 6.68944C9.94036 7.43267 9.59703 8.12413 9.08027 8.6824C8.56352 9.24068 7.89485 9.6425 7.15302 9.84056C6.41119 10.0386 5.62711 10.0247 4.8931 9.80032C4.15909 9.57598 3.50574 9.15061 3.00998 8.57431C2.51423 7.99801 2.19674 7.29477 2.09488 6.54743C1.99302 5.80009 2.11105 5.03976 2.43506 4.35601C2.75908 3.67225 3.27558 3.09353 3.92375 2.68802C4.57191 2.2825 5.32473 2.06708 6.09356 2.06711ZM6.09356 8.13509C5.71672 8.13517 5.34648 8.03807 5.01997 7.85354C4.69346 7.66901 4.42216 7.40354 4.23328 7.08374C4.04441 6.76394 3.94459 6.40105 3.94384 6.03148C3.9431 5.66191 4.04144 5.29864 4.22902 4.97811C4.4166 4.65758 4.68683 4.39105 5.01259 4.20525C5.33835 4.01945 5.70819 3.92092 6.08503 3.91953C6.46188 3.91814 6.83247 4.01395 7.15964 4.19734C7.48681 4.38073 7.75907 4.64526 7.9491 4.9644C7.44527 5.00641 7.01079 5.03109 6.65723 5.04175C6.48492 4.94609 6.29021 4.896 6.0922 4.89639C5.91334 4.89484 5.73656 4.93402 5.57576 5.01084C5.41496 5.08766 5.27453 5.20004 5.16553 5.33912C5.05653 5.47819 4.98192 5.64018 4.94759 5.81233C4.91326 5.98449 4.92013 6.1621 4.96767 6.33121C5.01521 6.50031 5.10212 6.65629 5.22156 6.78687C5.34099 6.91744 5.4897 7.01905 5.65597 7.0837C5.82225 7.14835 6.00155 7.17428 6.17978 7.15944C6.358 7.1446 6.53028 7.08939 6.68306 6.99818C7.05567 6.98551 7.5119 6.96284 8.03885 6.92016C7.86536 7.28267 7.59039 7.58935 7.24597 7.80445C6.90155 8.01956 6.50189 8.13422 6.09356 8.13509ZM5.83791 6.52074C5.80372 6.52041 5.76994 6.51335 5.73859 6.49996C5.70725 6.48657 5.67896 6.46714 5.65543 6.44281C5.6319 6.41849 5.61359 6.38977 5.6016 6.35837C5.58961 6.32697 5.58419 6.29352 5.58565 6.26002L5.61625 5.5392C5.63529 5.5392 7.50714 5.61121 10.2507 5.18312C12.6039 4.81571 16.0491 4.00086 19.5039 2.20047C19.7214 2.08738 19.9752 2.06135 20.2119 2.12787C20.4486 2.1944 20.6499 2.34828 20.7733 2.55722L20.8046 2.61056C16.9548 4.79237 13.0255 5.73724 10.4071 6.14466C8.94578 6.37976 7.46824 6.50438 5.98749 6.51741L5.83791 6.52074ZM15.5562 6.69211C15.4324 6.30869 15.2523 5.77125 14.3786 5.73257C14.0828 5.71923 13.7061 5.76324 13.2227 5.8906C13.3525 6.38738 13.5796 7.28224 15.5535 6.69078L15.5562 6.69211ZM17.8816 5.8826C17.7401 5.52786 17.5416 5.03709 16.7712 5.00308C16.4551 4.98908 16.043 5.05242 15.4998 5.23513C15.6636 5.7219 15.9499 6.60009 17.8795 5.8826H17.8816ZM20.1512 4.92373C19.9948 4.59632 19.7752 4.1509 19.0946 4.12022C18.7634 4.10555 18.3235 4.1869 17.7272 4.43362C17.9237 4.90906 18.2712 5.76724 20.1512 4.92373ZM22.3576 3.81682C22.1883 3.51543 21.955 3.11267 21.3472 3.08333C21.0031 3.068 20.5394 3.17335 19.9003 3.48342C20.1287 3.94485 20.5292 4.7797 22.3576 3.81282V3.81682ZM12.8276 4.37494C14.6587 3.89351 14.3684 3.02065 14.2099 2.53388C12.487 3.04932 12.6903 3.8615 12.8276 4.38161V4.37494ZM15.0034 3.75614C16.7991 3.15601 16.451 2.3005 16.2592 1.82239C14.5737 2.4492 14.8314 3.24603 15.0034 3.75614ZM17.1309 2.98798C18.8845 2.26716 18.4806 1.43964 18.2569 0.975544C16.6135 1.70904 16.9256 2.48987 17.1309 2.98798ZM21.0623 2.21848C22.9892 2.15847 23.013 1.20693 22.9981 0.683481C21.114 0.824845 21.1011 1.66703 21.0623 2.21848ZM19.2074 2.08512C20.9141 1.2496 20.4551 0.448764 20.1995 0C18.6043 0.844849 18.9688 1.60035 19.2074 2.08378" fill="#339E72"/>
</svg>
