<svg width="23" height="12" viewBox="0 0 23 12" fill="none" xmlns="http://www.w3.org/2000/svg">
<path d="M23 6.02597C22.9995 7.58509 22.3777 9.08227 21.2673 10.198C20.1568 11.3138 18.6457 11.9598 17.0564 11.9982C15.4671 12.0366 13.9254 11.4643 12.7603 10.4034C11.5953 9.3426 10.8991 7.87724 10.8204 6.32003C11.1726 6.39338 11.5105 6.45873 11.8341 6.51607C11.9583 7.75106 12.5462 8.89668 13.4836 9.73027C14.421 10.5639 15.6409 11.0259 16.9063 11.0266C18.1717 11.0272 19.3921 10.5665 20.3305 9.73389C21.2688 8.90128 21.8579 7.75629 21.9834 6.52143C22.1089 5.28658 21.7617 4.05008 21.0094 3.05224C20.2571 2.0544 19.1534 1.3665 17.9128 1.12224C16.6721 0.877984 15.3832 1.09481 14.2965 1.73058C13.2098 2.36635 12.4029 3.37565 12.0327 4.56232C11.7145 4.50431 11.3874 4.44029 11.0515 4.36828C11.4585 2.9845 12.3613 1.7914 13.5939 1.0085C14.8265 0.225601 16.3059 -0.0944245 17.76 0.107305C19.214 0.309035 20.5449 1.01895 21.5077 2.10643C22.4705 3.1939 23.0004 4.58578 23 6.02597ZM16.9064 2.06711C16.067 2.06814 15.2487 2.32552 14.5653 2.80351C13.8818 3.2815 13.3671 3.95636 13.0927 4.73435C13.4476 4.78637 13.7862 4.83038 14.1065 4.86772C14.385 4.21861 14.8889 3.68721 15.5288 3.36774C16.1687 3.04827 16.9034 2.96139 17.6024 3.12249C18.3015 3.2836 18.9197 3.68228 19.3476 4.24785C19.7754 4.81341 19.9853 5.5093 19.9398 6.21211C19.8943 6.91492 19.5965 7.57923 19.0992 8.08723C18.6019 8.59523 17.9372 8.9141 17.223 8.98728C16.5088 9.06047 15.7913 8.88324 15.1977 8.48702C14.604 8.09081 14.1726 7.50122 13.98 6.82281C13.6482 6.78613 13.3001 6.74212 12.9302 6.68944C13.0596 7.43267 13.403 8.12413 13.9197 8.6824C14.4365 9.24068 15.1052 9.6425 15.847 9.84056C16.5888 10.0386 17.3729 10.0247 18.1069 9.80032C18.8409 9.57598 19.4943 9.15061 19.99 8.57431C20.4858 7.99801 20.8033 7.29477 20.9051 6.54743C21.007 5.80009 20.8889 5.03976 20.5649 4.35601C20.2409 3.67225 19.7244 3.09353 19.0763 2.68802C18.4281 2.2825 17.6753 2.06708 16.9064 2.06711ZM16.9064 8.13509C17.2833 8.13517 17.6535 8.03807 17.98 7.85354C18.3065 7.66901 18.5778 7.40354 18.7667 7.08374C18.9556 6.76394 19.0554 6.40105 19.0562 6.03148C19.0569 5.66191 18.9586 5.29864 18.771 4.97811C18.5834 4.65758 18.3132 4.39105 17.9874 4.20525C17.6617 4.01945 17.2918 3.92092 16.915 3.91953C16.5381 3.91814 16.1675 4.01395 15.8404 4.19734C15.5132 4.38073 15.2409 4.64526 15.0509 4.9644C15.5547 5.00641 15.9892 5.03109 16.3428 5.04175C16.5151 4.94609 16.7098 4.896 16.9078 4.89639C17.0867 4.89484 17.2634 4.93402 17.4242 5.01084C17.585 5.08766 17.7255 5.20004 17.8345 5.33912C17.9435 5.47819 18.0181 5.64018 18.0524 5.81233C18.0867 5.98449 18.0799 6.1621 18.0323 6.33121C17.9848 6.50031 17.8979 6.65629 17.7784 6.78687C17.659 6.91744 17.5103 7.01905 17.344 7.0837C17.1778 7.14835 16.9984 7.17428 16.8202 7.15944C16.642 7.1446 16.4697 7.08939 16.3169 6.99818C15.9443 6.98551 15.4881 6.96284 14.9611 6.92016C15.1346 7.28267 15.4096 7.58935 15.754 7.80445C16.0984 8.01956 16.4981 8.13422 16.9064 8.13509ZM17.1621 6.52074C17.1963 6.52041 17.2301 6.51335 17.2614 6.49996C17.2928 6.48657 17.321 6.46714 17.3446 6.44281C17.3681 6.41849 17.3864 6.38977 17.3984 6.35837C17.4104 6.32697 17.4158 6.29352 17.4143 6.26002L17.3838 5.5392C17.3647 5.5392 15.4929 5.61121 12.7493 5.18312C10.3961 4.81571 6.95085 4.00086 3.49611 2.20047C3.27855 2.08738 3.02477 2.06135 2.78806 2.12787C2.55135 2.1944 2.35014 2.34828 2.22668 2.55722L2.1954 2.61056C6.04518 4.79237 9.97452 5.73724 12.5929 6.14466C14.0542 6.37976 15.5318 6.50438 17.0125 6.51741L17.1621 6.52074ZM7.4438 6.69211C7.56755 6.30869 7.74773 5.77125 8.62145 5.73257C8.91722 5.71923 9.2939 5.76324 9.77734 5.8906C9.64747 6.38738 9.42037 7.28224 7.44652 6.69078L7.4438 6.69211ZM5.11843 5.8826C5.25986 5.52786 5.4584 5.03709 6.22876 5.00308C6.54493 4.98908 6.95697 5.05242 7.50024 5.23513C7.33638 5.7219 7.05012 6.60009 5.12047 5.8826H5.11843ZM2.84881 4.92373C3.0052 4.59632 3.22482 4.1509 3.90543 4.12022C4.23656 4.10555 4.67648 4.1869 5.27278 4.43362C5.07628 4.90906 4.72883 5.76724 2.84881 4.92373ZM0.64243 3.81682C0.811734 3.51543 1.04495 3.11267 1.65281 3.08333C1.99686 3.068 2.46057 3.17335 3.09971 3.48342C2.87125 3.94485 2.47077 4.7797 0.64243 3.81282V3.81682ZM10.1724 4.37494C8.34132 3.89351 8.63165 3.02065 8.79007 2.53388C10.513 3.04932 10.3097 3.8615 10.1724 4.38161V4.37494ZM7.99659 3.75614C6.20089 3.15601 6.54901 2.3005 6.74075 1.82239C8.42631 2.4492 8.16861 3.24603 7.99659 3.75614ZM5.86908 2.98798C4.11553 2.26716 4.51941 1.43964 4.74311 0.975544C6.38651 1.70904 6.07442 2.48987 5.86908 2.98798ZM1.9377 2.21848C0.010772 2.15847 -0.0130257 1.20693 0.00193279 0.683481C1.88603 0.824845 1.89895 1.66703 1.9377 2.21848ZM3.79256 2.08512C2.08593 1.2496 2.54488 0.448764 2.80054 0C4.39566 0.844849 4.03122 1.60035 3.79256 2.08378" fill="#339E72"/>
</svg>
