<svg width="79" height="50" viewBox="0 0 79 50" xmlns="http://www.w3.org/2000/svg">
<g opacity="1" fill="black">
<path d="M73.3243 21.2215L73.3485 21.3184L73.4473 21.3335C76.502 21.7985 78.8502 24.443 78.85 27.6252V40.8193C78.85 41.4197 78.3632 41.9063 77.763 41.9063H73.7199H73.5683L73.57 42.058C73.5701 42.0725 73.5706 42.0868 73.5711 42.0989L73.5712 42.1029C73.5717 42.1166 73.5721 42.1279 73.5721 42.1387C73.5721 46.3756 70.1248 49.8227 65.8881 49.8227C61.6514 49.8227 58.2042 46.3756 58.2042 42.1387C58.2042 42.1279 58.2045 42.1167 58.205 42.1029C58.2055 42.09 58.2061 42.0741 58.2063 42.058L58.208 41.9063H58.0563H30.1794H30.0278L30.0295 42.058C30.0296 42.0725 30.0302 42.0869 30.0306 42.099L30.0307 42.1029C30.031 42.1095 30.0312 42.1155 30.0313 42.1212C30.0315 42.1274 30.0316 42.1331 30.0316 42.1387C30.0316 46.3756 26.5843 49.8227 22.3476 49.8227C18.1109 49.8227 14.6637 46.3756 14.6637 42.1387C14.6637 42.1315 14.6638 42.1242 14.6641 42.116C14.6642 42.1119 14.6644 42.1075 14.6645 42.1029C14.665 42.09 14.6656 42.0741 14.6658 42.058L14.6675 41.9063H14.5158H7.83413C6.50731 41.9063 5.42774 40.8267 5.42774 39.4999V36.7786V36.6286H5.27774H1.237C0.636615 36.6286 0.15 36.142 0.15 35.5416C0.15 34.9412 0.636757 34.4546 1.237 34.4546H13.1117C13.7121 34.4546 14.1987 34.9412 14.1987 35.5416C14.1987 36.142 13.712 36.6286 13.1117 36.6286H7.75158H7.60158V36.7786V39.4999C7.60158 39.6283 7.70561 39.7323 7.83398 39.7323H14.9441H15.0509L15.0859 39.6314C16.128 36.6218 18.9891 34.4546 22.3476 34.4546C25.7061 34.4546 28.5671 36.6218 29.6094 39.6314L29.6443 39.7323H29.7511H55.4151H55.5651V39.5823V30.2642C55.5651 29.6638 56.0518 29.1772 56.6521 29.1772C57.2524 29.1772 57.7391 29.6639 57.7391 30.2642V39.5826V39.7326H57.8891H58.4846H58.5914L58.6264 39.6317C59.6685 36.6221 62.5296 34.4549 65.8881 34.4549C69.2467 34.4549 72.1076 36.6221 73.1499 39.6317L73.1848 39.7326H73.2916H76.526H76.676V39.5826V34.1401V33.9901H76.526H75.1241C73.0697 33.9901 71.3983 32.3186 71.3983 30.2643V27.6255C71.3983 27.0252 71.885 26.5385 72.4853 26.5385H76.3316H76.5376L76.4743 26.3425C75.9313 24.6586 74.3505 23.4361 72.4878 23.4348C72.4857 23.4347 72.4835 23.4346 72.4811 23.4346H57.8894H57.7394V23.5846V24.9869C57.7394 25.5873 57.2526 26.0739 56.6524 26.0739C56.052 26.0739 55.5654 25.5871 55.5654 24.9869V2.5564C55.5654 2.42804 55.4613 2.324 55.333 2.324H7.83398C7.70562 2.324 7.60158 2.42803 7.60158 2.5564V24.9866C7.60158 25.587 7.11482 26.0736 6.51458 26.0736C5.91421 26.0736 5.42758 25.5868 5.42758 24.9866V2.5564C5.42758 1.22958 6.50716 0.15 7.83398 0.15H55.3331C56.6599 0.15 57.7395 1.22958 57.7395 2.5564V5.27789V5.42789H57.8895H67.2078C69.9895 5.42789 72.253 7.69124 72.253 10.4731V11.7925C72.253 12.3146 71.8844 12.7509 71.3928 12.8553L71.2408 12.8876L71.2785 13.0384L73.3243 21.2215ZM57.8895 7.60174H57.7395V7.75174V10.5555V10.7055H57.8895H69.9292H70.0792V10.5555V10.4731C70.0792 8.88969 68.7912 7.60174 67.2078 7.60174H57.8895ZM57.7395 21.1108V21.2608H57.8895H70.9012H71.0934L71.0468 21.0744L69.0264 12.9929L68.998 12.8793H68.8809H57.8895H57.7395V13.0293V21.1108ZM73.7224 28.7122H73.5724V28.8622V30.2642C73.5724 31.12 74.2685 31.8161 75.1244 31.8161H76.3762H76.5262H76.5263V31.6661H76.6762V28.8622V28.7122H76.5262H73.7224ZM16.8375 42.139C16.8375 45.1776 19.3092 47.6492 22.3476 47.6492C25.386 47.6492 27.8578 45.1776 27.8578 42.139C27.8578 39.1005 25.386 36.6289 22.3476 36.6289C19.3092 36.6289 16.8375 39.1005 16.8375 42.139ZM60.3783 42.139C60.3783 45.1776 62.85 47.6492 65.8884 47.6492C68.9268 47.6492 71.3986 45.1776 71.3986 42.139C71.3986 39.1005 68.9268 36.6289 65.8884 36.6289C62.85 36.6289 60.3783 39.1005 60.3783 42.139Z" fill="#25201D" stroke="white" stroke-width="0.3"/>
<path d="M19.9415 42.1384C19.9415 40.8116 21.0211 39.732 22.3479 39.732C23.6747 39.732 24.7543 40.8116 24.7543 42.1384C24.7543 43.4652 23.6747 44.5448 22.3479 44.5448C21.0211 44.5448 19.9415 43.4652 19.9415 42.1384Z" fill="#25201D" stroke="white" stroke-width="0.3"/>
<path d="M63.482 42.1384C63.482 40.8116 64.5616 39.732 65.8884 39.732C67.2152 39.732 68.2948 40.8116 68.2948 42.1384C68.2948 43.4652 67.2152 44.5448 65.8884 44.5448C64.5616 44.5448 63.482 43.4652 63.482 42.1384Z" fill="#25201D" stroke="white" stroke-width="0.3"/>
<path d="M32.903 34.4547H51.3749C51.9752 34.4547 52.4619 34.9413 52.4619 35.5417C52.4619 36.1421 51.9751 36.6287 51.3749 36.6287H32.903C32.3026 36.6287 31.816 36.1421 31.816 35.5417C31.816 34.9413 32.3028 34.4547 32.903 34.4547Z" fill="#25201D" stroke="white" stroke-width="0.3"/>
<path d="M3.87567 29.1773H19.7087C20.309 29.1773 20.7957 29.664 20.7957 30.2643C20.7957 30.8647 20.309 31.3513 19.7087 31.3513H3.87567C3.27529 31.3513 2.78867 30.8647 2.78867 30.2643C2.78867 29.664 3.27543 29.1773 3.87567 29.1773Z" fill="#25201D" stroke="white" stroke-width="0.3"/>
</g>
</svg>
