<svg width="49" height="51" viewBox="0 0 49 51" xmlns="http://www.w3.org/2000/svg">
<path fill="black" opacity="0.6" d="M48.1833 0H41.65C41.4334 0 41.2257 0.0866645 41.0725 0.240928C40.9194 0.395192 40.8333 0.604419 40.8333 0.822581V1.64516H23.7836C23.0453 1.64568 22.3189 1.83224 21.6705 2.18786L13.675 6.58065H4.08333C2.7095 6.58065 1.63333 8.02592 1.63333 9.87097C1.63333 11.593 2.57097 12.9659 3.81291 13.1419L0.130973 25.6965C0.127706 25.7077 0.124644 25.719 0.121785 25.7302C0.0409426 26.0564 4.33359e-05 26.3914 0 26.7276V50.1774C0 50.3956 0.0860414 50.6048 0.239196 50.7591C0.392351 50.9133 0.600073 51 0.816667 51H37.5667C37.7833 51 37.991 50.9133 38.1441 50.7591C38.2973 50.6048 38.3833 50.3956 38.3833 50.1774V26.7964C38.3834 26.4035 38.3275 26.0127 38.2173 25.6358L34.8147 13.9832C35.9228 13.975 36.9874 13.5477 37.7974 12.786C38.6074 12.0243 39.1037 10.9839 39.1879 9.87097H40.8333V11.5161C40.8333 11.7343 40.9194 11.9435 41.0725 12.0978C41.2257 12.252 41.4334 12.3387 41.65 12.3387H48.1833C48.3999 12.3387 48.6076 12.252 48.7608 12.0978C48.914 11.9435 49 11.7343 49 11.5161V0.822581C49 0.604419 48.914 0.395192 48.7608 0.240928C48.6076 0.0866645 48.3999 0 48.1833 0ZM3.26667 9.87097C3.26667 8.8667 3.75034 8.22581 4.08333 8.22581H27.4285L24.1618 11.5161H4.08333C3.75034 11.5161 3.26667 10.8752 3.26667 9.87097ZM28.7051 25.7303C28.6243 26.0565 28.5834 26.3915 28.5833 26.7277V49.3548H1.63333V26.7276C1.63341 26.5313 1.65668 26.3356 1.70265 26.1448L5.51025 13.1613H22.6842C22.2579 13.8868 22.0961 14.7393 22.2265 15.5721C22.357 16.4048 22.7717 17.1657 23.3991 17.7237C24.0265 18.2817 24.8275 18.6019 25.664 18.6292C26.5006 18.6565 27.3204 18.3892 27.9824 17.8732L31.9113 14.795L28.7143 25.6966C28.711 25.7078 28.708 25.7191 28.7051 25.7303ZM33.4833 47.2278L35.595 49.3548H31.3716L33.4833 47.2278ZM36.6505 26.1004C36.7165 26.3264 36.7501 26.5608 36.75 26.7964V48.1915L34.3 45.7238V27.9677C34.3 27.7496 34.214 27.5404 34.0608 27.3861C33.9076 27.2318 33.6999 27.1452 33.4833 27.1452C33.2667 27.1452 33.059 27.2318 32.9059 27.3861C32.7527 27.5404 32.6667 27.7496 32.6667 27.9677V45.7239L30.2167 48.1916V26.7276C30.2167 26.5313 30.24 26.3356 30.286 26.1448L33.4812 15.2481L36.6505 26.1004ZM40.8333 8.22581H38.8706C38.5249 8.22621 38.1935 8.36472 37.949 8.61093C37.7046 8.85714 37.5671 9.19096 37.5667 9.53916C37.5658 10.2814 37.2727 10.993 36.7517 11.5178C36.2306 12.0426 35.5241 12.3379 34.7872 12.3387H32.7797C32.5249 12.3392 32.2775 12.4247 32.0761 12.5819L26.9794 16.575C26.5852 16.8841 26.0888 17.0302 25.5914 16.9835C25.094 16.9367 24.633 16.7007 24.3024 16.3235C23.9717 15.9463 23.7964 15.4562 23.812 14.9533C23.8276 14.4504 24.0331 13.9723 24.3865 13.6167L29.9774 7.9852C30.0917 7.87018 30.1696 7.72359 30.2012 7.56398C30.2327 7.40437 30.2166 7.23891 30.1548 7.08854C30.093 6.93817 29.9883 6.80965 29.8539 6.71924C29.7195 6.62883 29.5616 6.5806 29.4 6.58065H17.0861L22.4527 3.6321C22.8611 3.40813 23.3186 3.29064 23.7836 3.29032H40.8333V8.22581ZM47.3667 10.6935H42.4667V1.64516H47.3667V10.6935Z" fill="#25201D"/>
</svg>
