<svg width="96" height="60" viewBox="0 0 96 60" fill="none" xmlns="http://www.w3.org/2000/svg">
  <path
    d="M66 17.5757C65.9985 22.1232 64.2142 26.49 61.0278 29.7443C57.8413 32.9986 53.5051 34.8828 48.9445 34.9947C44.3838 35.1066 39.9599 33.4375 36.6166 30.3434C33.2734 27.2493 31.2757 22.9753 31.0497 18.4334C32.0604 18.6474 33.0301 18.838 33.9588 19.0052C34.315 22.6073 36.002 25.9486 38.6919 28.38C41.3819 30.8113 44.8826 32.1589 48.5137 32.1608C52.1448 32.1628 55.647 30.8189 58.3396 28.3905C61.0321 25.9621 62.7227 22.6225 63.0828 19.0209C63.4429 15.4192 62.4467 11.8127 60.288 8.90236C58.1292 5.99199 54.962 3.98563 51.4019 3.27321C47.8418 2.56079 44.1431 3.19319 41.0247 5.04752C37.9063 6.90185 35.5909 9.84564 34.5285 13.3068C33.6154 13.1376 32.6769 12.9509 31.7131 12.7408C32.8809 8.70478 35.4716 5.22491 39.0086 2.94146C42.5456 0.658004 46.7909 -0.275405 50.9634 0.312974C55.1359 0.901353 58.9549 2.97194 61.7176 6.14374C64.4804 9.31555 66.0011 13.3752 66 17.5757ZM48.5141 6.02908C46.1053 6.03207 43.7572 6.78277 41.796 8.1769C39.8348 9.57103 38.3579 11.5394 37.5703 13.8085C38.5888 13.9602 39.5605 14.0886 40.4794 14.1975C41.2786 12.3043 42.7246 10.7544 44.5609 9.82258C46.3973 8.8908 48.5053 8.63738 50.5113 9.10727C52.5172 9.57716 54.2914 10.74 55.5191 12.3896C56.7469 14.0391 57.349 16.0688 57.2185 18.1186C57.0881 20.1685 56.2335 22.1061 54.8065 23.5878C53.3794 25.0694 51.4721 25.9995 49.4226 26.2129C47.3732 26.4264 45.3142 25.9094 43.6107 24.7538C41.9072 23.5982 40.6693 21.8786 40.1165 19.8998C39.1644 19.7929 38.1654 19.6645 37.104 19.5109C37.4755 21.6786 38.4607 23.6954 39.9436 25.3237C41.4264 26.952 43.3452 28.124 45.4739 28.7016C47.6027 29.2793 49.8526 29.2386 51.9589 28.5843C54.0652 27.9299 55.9401 26.6893 57.3626 25.0084C58.7852 23.3275 59.6963 21.2764 59.9886 19.0967C60.2809 16.9169 59.9422 14.6993 59.0124 12.705C58.0826 10.7107 56.6005 9.0228 54.7405 7.84005C52.8806 6.65729 50.7203 6.02897 48.5141 6.02908ZM48.5141 23.7273C49.5955 23.7276 50.6579 23.4444 51.5949 22.9062C52.5318 22.368 53.3103 21.5937 53.8523 20.6609C54.3943 19.7281 54.6807 18.6697 54.6829 17.5918C54.685 16.5139 54.4028 15.4544 53.8645 14.5195C53.3263 13.5846 52.5508 12.8072 51.616 12.2653C50.6813 11.7234 49.62 11.436 48.5386 11.432C47.4572 11.4279 46.3938 11.7073 45.4549 12.2422C44.5161 12.7771 43.7348 13.5487 43.1895 14.4795C44.6353 14.602 45.8821 14.674 46.8966 14.7051C47.3911 14.4261 47.9498 14.28 48.518 14.2811C49.0313 14.2766 49.5386 14.3909 50 14.615C50.4614 14.839 50.8644 15.1668 51.1772 15.5724C51.49 15.9781 51.704 16.4505 51.8026 16.9526C51.9011 17.4548 51.8814 17.9728 51.7449 18.466C51.6085 18.9592 51.3591 19.4142 51.0164 19.795C50.6737 20.1759 50.2469 20.4722 49.7698 20.6608C49.2927 20.8494 48.7781 20.925 48.2667 20.8817C47.7553 20.8384 47.2609 20.6774 46.8225 20.4113C45.7533 20.3744 44.4441 20.3083 42.932 20.1838C43.4298 21.2411 44.2189 22.1356 45.2072 22.763C46.1955 23.3904 47.3424 23.7248 48.5141 23.7273ZM49.2477 19.0188C49.3459 19.0179 49.4428 18.9973 49.5327 18.9582C49.6227 18.9192 49.7038 18.8625 49.7714 18.7915C49.8389 18.7206 49.8914 18.6368 49.9258 18.5452C49.9602 18.4536 49.9758 18.3561 49.9716 18.2584L49.8838 16.156C49.8292 16.156 44.4578 16.366 36.585 15.1174C29.8322 14.0458 19.9459 11.6692 10.0323 6.41805C9.40802 6.08818 8.67977 6.01228 8.00052 6.2063C7.32127 6.40032 6.74387 6.84916 6.38959 7.45855L6.29984 7.61414C17.347 13.9777 28.6225 16.7336 36.1363 17.9219C40.3295 18.6076 44.5694 18.9711 48.8185 19.0091L49.2477 19.0188ZM21.3605 19.5187C21.7156 18.4004 22.2326 16.8328 24.7398 16.72C25.5885 16.6811 26.6695 16.8095 28.0567 17.1809C27.684 18.6299 27.0324 21.2399 21.3683 19.5148L21.3605 19.5187ZM14.6877 17.1576C15.0935 16.1229 15.6632 14.6915 17.8738 14.5923C18.7811 14.5515 19.9635 14.7362 21.5224 15.2691C21.0522 16.6889 20.2308 19.2503 14.6935 17.1576H14.6877ZM8.17486 14.3609C8.62361 13.4059 9.25382 12.1068 11.2069 12.0173C12.1571 11.9745 13.4194 12.2118 15.1306 12.9314C14.5667 14.3181 13.5697 16.8211 8.17486 14.3609ZM1.84349 11.1324C2.32932 10.2533 2.99855 9.07863 4.74285 8.99305C5.73011 8.94832 7.06077 9.25561 8.89482 10.16C8.23924 11.5058 7.09004 13.9408 1.84349 11.1207V11.1324ZM29.1903 12.7603C23.936 11.3561 24.7691 8.81023 25.2237 7.39048C30.1678 8.89386 29.5844 11.2627 29.1903 12.7797V12.7603ZM22.9467 10.9554C17.7938 9.20504 18.7928 6.70978 19.343 5.31531C24.1798 7.14349 23.4404 9.4676 22.9467 10.9554ZM16.8417 8.71494C11.8098 6.61254 12.9687 4.19896 13.6107 2.84534C18.3265 4.98469 17.4309 7.26212 16.8417 8.71494ZM5.56037 6.47056C0.030911 6.29553 -0.0373782 3.5202 0.00554627 1.99349C5.41208 2.4058 5.44915 4.86216 5.56037 6.47056ZM10.883 6.08159C5.98571 3.64468 7.30271 1.30889 8.03633 0C12.6136 2.46414 11.5678 4.66767 10.883 6.0777"
    style="fill: #339E72 !important;" />
  <g>
    <mask id="path-2-inside-1_256919_14715" fill="white">
      <path fill-rule="evenodd" clip-rule="evenodd"
        d="M22.2776 23V34.9866C22.2776 35.6697 22.8314 36.2236 23.5146 36.2236C24.1977 36.2236 24.7516 35.6698 24.7516 34.9866V23H22.2776ZM67 12.474H72.333C72.3785 12.474 72.4154 12.5109 72.4154 12.5564V34.9869C72.4154 35.67 72.9691 36.2239 73.6524 36.2239C74.3354 36.2239 74.8894 35.6701 74.8894 34.9869V33.5846H89.4811C89.4817 33.5846 89.4823 33.5847 89.4828 33.5848C89.4833 33.5849 89.4838 33.5849 89.4843 33.5849L89.4877 33.5848C91.2833 33.586 92.8079 34.7645 93.3316 36.3885H89.4853C88.8022 36.3885 88.2483 36.9423 88.2483 37.6255V40.2643C88.2483 42.4015 89.9869 44.1401 92.1241 44.1401H93.526V49.5826H90.2916C89.2291 46.5147 86.3128 44.3049 82.8881 44.3049C79.4635 44.3049 76.547 46.5147 75.4846 49.5826H74.8891V40.2642C74.8891 39.5811 74.3353 39.0272 73.6521 39.0272C72.969 39.0272 72.4151 39.5809 72.4151 40.2642V49.5823H46.7511C45.6886 46.5144 42.7723 44.3046 39.3476 44.3046C35.923 44.3046 33.0065 46.5144 31.9441 49.5823H24.834C24.7885 49.5823 24.7516 49.5454 24.7516 49.4999V46.7786H30.1117C30.7948 46.7786 31.3487 46.2248 31.3487 45.5416C31.3487 44.8584 30.7949 44.3046 30.1117 44.3046H18.237C17.5539 44.3046 17 44.8584 17 45.5416C17 46.2248 17.5538 46.7786 18.237 46.7786H22.2777V49.4999C22.2777 50.9096 23.4245 52.0563 24.8341 52.0563H31.5158C31.5157 52.0688 31.5152 52.0812 31.5148 52.0937C31.5142 52.1086 31.5137 52.1236 31.5137 52.1387C31.5137 56.4584 35.0281 59.9727 39.3476 59.9727C43.6672 59.9727 47.1816 56.4584 47.1816 52.1387C47.1816 52.1109 47.1798 52.0838 47.1794 52.0563H75.0563C75.056 52.0838 75.0542 52.1111 75.0542 52.1387C75.0542 56.4584 78.5686 59.9727 82.8881 59.9727C87.2077 59.9727 90.7221 56.4584 90.7221 52.1387C90.7221 52.1109 90.7203 52.0838 90.7199 52.0563H94.763C95.4461 52.0563 96 51.5025 96 50.8193V37.6252C96.0002 34.3677 93.5967 31.6612 90.4698 31.1852L88.424 23.002C88.9833 22.8832 89.403 22.387 89.403 21.7925V20.4731C89.403 17.6084 87.0724 15.2779 84.2078 15.2779H74.8895V12.5564C74.8895 11.1467 73.7428 10 72.3331 10H67V12.474ZM84.2078 17.7517H74.8895V20.5555H86.9292V20.4731C86.9292 18.9725 85.7084 17.7517 84.2078 17.7517ZM74.8895 23.0293V31.1108H87.9012L85.8809 23.0293H74.8895ZM33.9875 52.139C33.9875 55.0947 36.3921 57.4992 39.3476 57.4992C42.3032 57.4992 44.7078 55.0947 44.7078 52.139C44.7078 49.1833 42.3032 46.7789 39.3476 46.7789C36.3921 46.7789 33.9875 49.1833 33.9875 52.139ZM77.5283 52.139C77.5283 55.0947 79.9329 57.4992 82.8884 57.4992C85.844 57.4992 88.2486 55.0947 88.2486 52.139C88.2486 49.1833 85.844 46.7789 82.8884 46.7789C79.9329 46.7789 77.5283 49.1833 77.5283 52.139ZM92.1244 41.6661H93.5262V38.8622H90.7224V40.2642C90.7224 41.0372 91.3513 41.6661 92.1244 41.6661Z" />
    </mask>
    <path fill-rule="evenodd" clip-rule="evenodd"
      d="M22.2776 23V34.9866C22.2776 35.6697 22.8314 36.2236 23.5146 36.2236C24.1977 36.2236 24.7516 35.6698 24.7516 34.9866V23H22.2776ZM67 12.474H72.333C72.3785 12.474 72.4154 12.5109 72.4154 12.5564V34.9869C72.4154 35.67 72.9691 36.2239 73.6524 36.2239C74.3354 36.2239 74.8894 35.6701 74.8894 34.9869V33.5846H89.4811C89.4817 33.5846 89.4823 33.5847 89.4828 33.5848C89.4833 33.5849 89.4838 33.5849 89.4843 33.5849L89.4877 33.5848C91.2833 33.586 92.8079 34.7645 93.3316 36.3885H89.4853C88.8022 36.3885 88.2483 36.9423 88.2483 37.6255V40.2643C88.2483 42.4015 89.9869 44.1401 92.1241 44.1401H93.526V49.5826H90.2916C89.2291 46.5147 86.3128 44.3049 82.8881 44.3049C79.4635 44.3049 76.547 46.5147 75.4846 49.5826H74.8891V40.2642C74.8891 39.5811 74.3353 39.0272 73.6521 39.0272C72.969 39.0272 72.4151 39.5809 72.4151 40.2642V49.5823H46.7511C45.6886 46.5144 42.7723 44.3046 39.3476 44.3046C35.923 44.3046 33.0065 46.5144 31.9441 49.5823H24.834C24.7885 49.5823 24.7516 49.5454 24.7516 49.4999V46.7786H30.1117C30.7948 46.7786 31.3487 46.2248 31.3487 45.5416C31.3487 44.8584 30.7949 44.3046 30.1117 44.3046H18.237C17.5539 44.3046 17 44.8584 17 45.5416C17 46.2248 17.5538 46.7786 18.237 46.7786H22.2777V49.4999C22.2777 50.9096 23.4245 52.0563 24.8341 52.0563H31.5158C31.5157 52.0688 31.5152 52.0812 31.5148 52.0937C31.5142 52.1086 31.5137 52.1236 31.5137 52.1387C31.5137 56.4584 35.0281 59.9727 39.3476 59.9727C43.6672 59.9727 47.1816 56.4584 47.1816 52.1387C47.1816 52.1109 47.1798 52.0838 47.1794 52.0563H75.0563C75.056 52.0838 75.0542 52.1111 75.0542 52.1387C75.0542 56.4584 78.5686 59.9727 82.8881 59.9727C87.2077 59.9727 90.7221 56.4584 90.7221 52.1387C90.7221 52.1109 90.7203 52.0838 90.7199 52.0563H94.763C95.4461 52.0563 96 51.5025 96 50.8193V37.6252C96.0002 34.3677 93.5967 31.6612 90.4698 31.1852L88.424 23.002C88.9833 22.8832 89.403 22.387 89.403 21.7925V20.4731C89.403 17.6084 87.0724 15.2779 84.2078 15.2779H74.8895V12.5564C74.8895 11.1467 73.7428 10 72.3331 10H67V12.474ZM84.2078 17.7517H74.8895V20.5555H86.9292V20.4731C86.9292 18.9725 85.7084 17.7517 84.2078 17.7517ZM74.8895 23.0293V31.1108H87.9012L85.8809 23.0293H74.8895ZM33.9875 52.139C33.9875 55.0947 36.3921 57.4992 39.3476 57.4992C42.3032 57.4992 44.7078 55.0947 44.7078 52.139C44.7078 49.1833 42.3032 46.7789 39.3476 46.7789C36.3921 46.7789 33.9875 49.1833 33.9875 52.139ZM77.5283 52.139C77.5283 55.0947 79.9329 57.4992 82.8884 57.4992C85.844 57.4992 88.2486 55.0947 88.2486 52.139C88.2486 49.1833 85.844 46.7789 82.8884 46.7789C79.9329 46.7789 77.5283 49.1833 77.5283 52.139ZM92.1244 41.6661H93.5262V38.8622H90.7224V40.2642C90.7224 41.0372 91.3513 41.6661 92.1244 41.6661Z"
      fill="#25201D" />
    <path
      d="M22.2776 23V22.7H21.9776V23H22.2776ZM24.7516 23H25.0516V22.7H24.7516V23ZM67 12.474H66.7V12.774H67V12.474ZM74.8894 33.5846V33.2846H74.5894V33.5846H74.8894ZM89.4828 33.5848L89.4383 33.8815L89.439 33.8816L89.4828 33.5848ZM89.4843 33.5849V33.8853L89.4981 33.8846L89.4843 33.5849ZM89.4877 33.5848L89.4879 33.2845L89.4739 33.2851L89.4877 33.5848ZM93.3316 36.3885V36.6885H93.7435L93.6171 36.2965L93.3316 36.3885ZM93.526 44.1401H93.826V43.8401H93.526V44.1401ZM93.526 49.5826V49.8826H93.826V49.5826H93.526ZM90.2916 49.5826L90.0081 49.6808L90.078 49.8826H90.2916V49.5826ZM75.4846 49.5826V49.8826H75.6982L75.7681 49.6808L75.4846 49.5826ZM74.8891 49.5826H74.5891V49.8826H74.8891V49.5826ZM72.4151 49.5823V49.8823H72.7151V49.5823H72.4151ZM46.7511 49.5823L46.4676 49.6805L46.5375 49.8823H46.7511V49.5823ZM31.9441 49.5823V49.8823H32.1577L32.2276 49.6805L31.9441 49.5823ZM24.7516 46.7786V46.4786H24.4516V46.7786H24.7516ZM22.2777 46.7786H22.5777V46.4786H22.2777V46.7786ZM31.5158 52.0563L31.8158 52.0597L31.8192 51.7563H31.5158V52.0563ZM31.5148 52.0937L31.215 52.0826L31.215 52.0826L31.5148 52.0937ZM47.1794 52.0563V51.7563H46.8761L46.8795 52.0597L47.1794 52.0563ZM75.0563 52.0563L75.3563 52.0597L75.3597 51.7563H75.0563V52.0563ZM90.7199 52.0563V51.7563H90.4166L90.42 52.0597L90.7199 52.0563ZM96 37.6252L95.7 37.6252V37.6252H96ZM90.4698 31.1852L90.1788 31.2579L90.2272 31.4517L90.4247 31.4817L90.4698 31.1852ZM88.424 23.002L88.3617 22.7086L88.0576 22.7732L88.133 23.0748L88.424 23.002ZM74.8895 15.2779H74.5895V15.5779H74.8895V15.2779ZM67 10V9.7H66.7V10H67ZM74.8895 17.7517V17.4517H74.5895V17.7517H74.8895ZM74.8895 20.5555H74.5895V20.8555H74.8895V20.5555ZM86.9292 20.5555V20.8555H87.2292V20.5555H86.9292ZM74.8895 31.1108H74.5895V31.4108H74.8895V31.1108ZM74.8895 23.0293V22.7293H74.5895V23.0293H74.8895ZM87.9012 31.1108V31.4108H88.2855L88.1923 31.038L87.9012 31.1108ZM85.8809 23.0293L86.1719 22.9566L86.1151 22.7293H85.8809V23.0293ZM93.5262 41.6661V41.9661H93.8262V41.6661H93.5262ZM93.5262 38.8622H93.8262V38.5622H93.5262V38.8622ZM90.7224 38.8622V38.5622H90.4224V38.8622H90.7224ZM21.9776 23V34.9866H22.5776V23H21.9776ZM21.9776 34.9866C21.9776 35.8353 22.6656 36.5236 23.5146 36.5236V35.9236C22.9971 35.9236 22.5776 35.504 22.5776 34.9866H21.9776ZM23.5146 36.5236C24.3633 36.5236 25.0516 35.8355 25.0516 34.9866H24.4516C24.4516 35.5041 24.032 35.9236 23.5146 35.9236V36.5236ZM25.0516 34.9866V23H24.4516V34.9866H25.0516ZM24.7516 22.7H22.2776V23.3H24.7516V22.7ZM67 12.774H72.333V12.174H67V12.774ZM72.333 12.774C72.2128 12.774 72.1154 12.6766 72.1154 12.5564H72.7154C72.7154 12.3452 72.5442 12.174 72.333 12.174V12.774ZM72.1154 12.5564V34.9869H72.7154V12.5564H72.1154ZM72.1154 34.9869C72.1154 35.8356 72.8034 36.5239 73.6524 36.5239V35.9239C73.1348 35.9239 72.7154 35.5043 72.7154 34.9869H72.1154ZM73.6524 36.5239C74.5011 36.5239 75.1894 35.8358 75.1894 34.9869H74.5894C74.5894 35.5044 74.1698 35.9239 73.6524 35.9239V36.5239ZM75.1894 34.9869V33.5846H74.5894V34.9869H75.1894ZM74.8894 33.8846H89.4811V33.2846H74.8894V33.8846ZM89.4811 33.8846C89.4566 33.8846 89.4368 33.8813 89.4383 33.8815L89.5273 33.2881C89.5273 33.2881 89.5268 33.288 89.5263 33.288C89.5257 33.2879 89.5248 33.2877 89.5236 33.2876C89.5214 33.2873 89.5181 33.2868 89.514 33.2864C89.5057 33.2855 89.4944 33.2846 89.4811 33.2846V33.8846ZM89.439 33.8816C89.439 33.8816 89.4391 33.8816 89.4392 33.8816C89.4394 33.8816 89.4396 33.8817 89.4398 33.8817C89.4403 33.8818 89.4411 33.8819 89.4421 33.882C89.444 33.8823 89.4471 33.8827 89.451 33.8831C89.4587 33.884 89.4703 33.8849 89.4843 33.8849V33.2849C89.4979 33.2849 89.5089 33.2859 89.5162 33.2867C89.5225 33.2874 89.5279 33.2882 89.5267 33.288L89.439 33.8816ZM89.4981 33.8846L89.5015 33.8845L89.4739 33.2851L89.4705 33.2853L89.4981 33.8846ZM89.4875 33.8848C91.1488 33.8859 92.561 34.9765 93.0461 36.4806L93.6171 36.2965C93.0548 34.5526 91.4178 33.2861 89.4879 33.2848L89.4875 33.8848ZM93.3316 36.0885H89.4853V36.6885H93.3316V36.0885ZM89.4853 36.0885C88.6365 36.0885 87.9483 36.7766 87.9483 37.6255H88.5483C88.5483 37.108 88.9679 36.6885 89.4853 36.6885V36.0885ZM87.9483 37.6255V40.2643H88.5483V37.6255H87.9483ZM87.9483 40.2643C87.9483 42.5672 89.8212 44.4401 92.1241 44.4401V43.8401C90.1526 43.8401 88.5483 42.2358 88.5483 40.2643H87.9483ZM92.1241 44.4401H93.526V43.8401H92.1241V44.4401ZM93.226 44.1401V49.5826H93.826V44.1401H93.226ZM93.526 49.2826H90.2916V49.8826H93.526V49.2826ZM90.5751 49.4844C89.4722 46.2999 86.445 44.0049 82.8881 44.0049V44.6049C86.1805 44.6049 88.986 46.7295 90.0081 49.6808L90.5751 49.4844ZM82.8881 44.0049C79.3313 44.0049 76.3039 46.2999 75.2012 49.4845L75.7681 49.6808C76.7901 46.7295 79.5957 44.6049 82.8881 44.6049V44.0049ZM75.4846 49.2826H74.8891V49.8826H75.4846V49.2826ZM75.1891 49.5826V40.2642H74.5891V49.5826H75.1891ZM75.1891 40.2642C75.1891 39.4154 74.501 38.7272 73.6521 38.7272V39.3272C74.1696 39.3272 74.5891 39.7467 74.5891 40.2642H75.1891ZM73.6521 38.7272C72.8033 38.7272 72.1151 39.4152 72.1151 40.2642H72.7151C72.7151 39.7466 73.1346 39.3272 73.6521 39.3272V38.7272ZM72.1151 40.2642V49.5823H72.7151V40.2642H72.1151ZM72.4151 49.2823H46.7511V49.8823H72.4151V49.2823ZM47.0346 49.4841C45.9317 46.2996 42.9045 44.0046 39.3476 44.0046V44.6046C42.64 44.6046 45.4455 46.7292 46.4676 49.6805L47.0346 49.4841ZM39.3476 44.0046C35.7908 44.0046 32.7634 46.2996 31.6607 49.4842L32.2276 49.6805C33.2496 46.7292 36.0552 44.6046 39.3476 44.6046V44.0046ZM31.9441 49.2823H24.834V49.8823H31.9441V49.2823ZM24.834 49.2823C24.9542 49.2823 25.0516 49.3798 25.0516 49.4999H24.4516C24.4516 49.7111 24.6228 49.8823 24.834 49.8823V49.2823ZM25.0516 49.4999V46.7786H24.4516V49.4999H25.0516ZM24.7516 47.0786H30.1117V46.4786H24.7516V47.0786ZM30.1117 47.0786C30.9604 47.0786 31.6487 46.3905 31.6487 45.5416H31.0487C31.0487 46.0591 30.6291 46.4786 30.1117 46.4786V47.0786ZM31.6487 45.5416C31.6487 44.6927 30.9606 44.0046 30.1117 44.0046V44.6046C30.6293 44.6046 31.0487 45.024 31.0487 45.5416H31.6487ZM30.1117 44.0046H18.237V44.6046H30.1117V44.0046ZM18.237 44.0046C17.3883 44.0046 16.7 44.6927 16.7 45.5416H17.3C17.3 45.0241 17.7196 44.6046 18.237 44.6046V44.0046ZM16.7 45.5416C16.7 46.3905 17.3881 47.0786 18.237 47.0786V46.4786C17.7195 46.4786 17.3 46.0591 17.3 45.5416H16.7ZM18.237 47.0786H22.2777V46.4786H18.237V47.0786ZM21.9777 46.7786V49.4999H22.5777V46.7786H21.9777ZM21.9777 49.4999C21.9777 51.0753 23.2588 52.3563 24.8341 52.3563V51.7563C23.5902 51.7563 22.5777 50.7439 22.5777 49.4999H21.9777ZM24.8341 52.3563H31.5158V51.7563H24.8341V52.3563ZM31.2158 52.053C31.2157 52.0609 31.2154 52.0695 31.215 52.0826L31.8146 52.1047C31.815 52.0929 31.8156 52.0766 31.8158 52.0597L31.2158 52.053ZM31.215 52.0826C31.2144 52.0967 31.2137 52.1172 31.2137 52.1387H31.8137C31.8137 52.1301 31.814 52.1206 31.8146 52.1047L31.215 52.0826ZM31.2137 52.1387C31.2137 56.6241 34.8624 60.2727 39.3476 60.2727V59.6727C35.1938 59.6727 31.8137 56.2927 31.8137 52.1387H31.2137ZM39.3476 60.2727C43.8329 60.2727 47.4816 56.6241 47.4816 52.1387H46.8816C46.8816 56.2927 43.5015 59.6727 39.3476 59.6727V60.2727ZM47.4816 52.1387C47.4816 52.1188 47.4809 52.1001 47.4804 52.0864C47.4799 52.0712 47.4795 52.062 47.4794 52.0529L46.8795 52.0597C46.8797 52.0781 46.8804 52.0962 46.8808 52.1084C46.8813 52.1221 46.8816 52.1309 46.8816 52.1387H47.4816ZM47.1794 52.3563H75.0563V51.7563H47.1794V52.3563ZM74.7563 52.0529C74.7562 52.062 74.7559 52.0713 74.7553 52.0865C74.7548 52.1002 74.7542 52.1188 74.7542 52.1387H75.3542C75.3542 52.131 75.3544 52.1222 75.3549 52.1084C75.3554 52.0962 75.3561 52.0781 75.3563 52.0597L74.7563 52.0529ZM74.7542 52.1387C74.7542 56.6241 78.4029 60.2727 82.8881 60.2727V59.6727C78.7343 59.6727 75.3542 56.2927 75.3542 52.1387H74.7542ZM82.8881 60.2727C87.3734 60.2727 91.0221 56.6241 91.0221 52.1387H90.4221C90.4221 56.2927 87.042 59.6727 82.8881 59.6727V60.2727ZM91.0221 52.1387C91.0221 52.1188 91.0214 52.1001 91.0209 52.0864C91.0204 52.0712 91.02 52.062 91.0199 52.053L90.42 52.0597C90.4202 52.0781 90.4209 52.0962 90.4213 52.1084C90.4218 52.1221 90.4221 52.1309 90.4221 52.1387H91.0221ZM90.7199 52.3563H94.763V51.7563H90.7199V52.3563ZM94.763 52.3563C95.6117 52.3563 96.3 51.6683 96.3 50.8193H95.7C95.7 51.3368 95.2804 51.7563 94.763 51.7563V52.3563ZM96.3 50.8193V37.6252H95.7V50.8193H96.3ZM96.3 37.6252C96.3002 34.217 93.7859 31.3865 90.515 30.8886L90.4247 31.4817C93.4074 31.9358 95.7001 34.5184 95.7 37.6252L96.3 37.6252ZM90.7609 31.1124L88.715 22.9292L88.133 23.0748L90.1788 31.2579L90.7609 31.1124ZM88.4863 23.2955C89.1812 23.1479 89.703 22.5318 89.703 21.7925H89.103C89.103 22.2422 88.7855 22.6185 88.3617 22.7086L88.4863 23.2955ZM89.703 21.7925V20.4731H89.103V21.7925H89.703ZM89.703 20.4731C89.703 17.4427 87.238 14.9779 84.2078 14.9779V15.5779C86.9067 15.5779 89.103 17.7741 89.103 20.4731H89.703ZM84.2078 14.9779H74.8895V15.5779H84.2078V14.9779ZM75.1895 15.2779V12.5564H74.5895V15.2779H75.1895ZM75.1895 12.5564C75.1895 10.9811 73.9085 9.7 72.3331 9.7V10.3C73.5771 10.3 74.5895 11.3124 74.5895 12.5564H75.1895ZM72.3331 9.7H67V10.3H72.3331V9.7ZM66.7 10V12.474H67.3V10H66.7ZM74.8895 18.0517H84.2078V17.4517H74.8895V18.0517ZM75.1895 20.5555V17.7517H74.5895V20.5555H75.1895ZM86.9292 20.2555H74.8895V20.8555H86.9292V20.2555ZM86.6292 20.4731V20.5555H87.2292V20.4731H86.6292ZM84.2078 18.0517C85.5427 18.0517 86.6292 19.1382 86.6292 20.4731H87.2292C87.2292 18.8069 85.8741 17.4517 84.2078 17.4517V18.0517ZM75.1895 31.1108V23.0293H74.5895V31.1108H75.1895ZM87.9012 30.8108H74.8895V31.4108H87.9012V30.8108ZM85.5898 23.1021L87.6102 31.1835L88.1923 31.038L86.1719 22.9566L85.5898 23.1021ZM74.8895 23.3293H85.8809V22.7293H74.8895V23.3293ZM39.3476 57.1992C36.5577 57.1992 34.2875 54.9291 34.2875 52.139H33.6875C33.6875 55.2604 36.2264 57.7992 39.3476 57.7992V57.1992ZM44.4078 52.139C44.4078 54.9291 42.1375 57.1992 39.3476 57.1992V57.7992C42.4689 57.7992 45.0078 55.2604 45.0078 52.139H44.4078ZM39.3476 47.0789C42.1375 47.0789 44.4078 49.349 44.4078 52.139H45.0078C45.0078 49.0176 42.4689 46.4789 39.3476 46.4789V47.0789ZM34.2875 52.139C34.2875 49.349 36.5577 47.0789 39.3476 47.0789V46.4789C36.2264 46.4789 33.6875 49.0176 33.6875 52.139H34.2875ZM82.8884 57.1992C80.0986 57.1992 77.8283 54.9291 77.8283 52.139H77.2283C77.2283 55.2604 79.7672 57.7992 82.8884 57.7992V57.1992ZM87.9486 52.139C87.9486 54.9291 85.6783 57.1992 82.8884 57.1992V57.7992C86.0097 57.7992 88.5486 55.2604 88.5486 52.139H87.9486ZM82.8884 47.0789C85.6783 47.0789 87.9486 49.349 87.9486 52.139H88.5486C88.5486 49.0176 86.0097 46.4789 82.8884 46.4789V47.0789ZM77.8283 52.139C77.8283 49.349 80.0986 47.0789 82.8884 47.0789V46.4789C79.7672 46.4789 77.2283 49.0176 77.2283 52.139H77.8283ZM93.5262 41.3661H92.1244V41.9661H93.5262V41.3661ZM93.2262 38.8622V41.6661H93.8262V38.8622H93.2262ZM90.7224 39.1622H93.5262V38.5622H90.7224V39.1622ZM91.0224 40.2642V38.8622H90.4224V40.2642H91.0224ZM92.1244 41.3661C91.517 41.3661 91.0224 40.8715 91.0224 40.2642H90.4224C90.4224 41.2029 91.1856 41.9661 92.1244 41.9661V41.3661Z"
      fill="white" mask="url(#path-2-inside-1_256919_14715)" />
  </g>
</svg>
