<svg width="27" height="15" viewBox="0 0 27 15" fill="none" xmlns="http://www.w3.org/2000/svg">
<path d="M8.09911 14.3814C6.83523 14.3814 5.80859 13.3599 5.80859 12.1048C5.80859 10.8496 6.83523 9.82812 8.09911 9.82812C9.36296 9.82812 10.3918 10.8496 10.3918 12.1048C10.3918 13.3599 9.36296 14.3814 8.09911 14.3814ZM8.09911 10.7133C7.32723 10.7133 6.69815 11.3382 6.69815 12.1048C6.69815 12.8731 7.32723 13.4963 8.09911 13.4963C8.87273 13.4963 9.50219 12.8713 9.50219 12.1048C9.50042 11.3382 8.87096 10.7133 8.09911 10.7133Z" fill="#339E72"/>
<path d="M22.5878 14.3814C21.3239 14.3814 20.2969 13.3599 20.2969 12.1048C20.2969 10.8496 21.3239 9.82812 22.5878 9.82812C23.8517 9.82812 24.88 10.8496 24.88 12.1048C24.88 13.3599 23.8517 14.3814 22.5878 14.3814ZM22.5878 10.7133C21.8142 10.7133 21.1864 11.3382 21.1864 12.1048C21.1864 12.8731 21.8159 13.4963 22.5878 13.4963C23.3597 13.4963 23.9905 12.8713 23.9905 12.1048C23.9887 11.3382 23.3597 10.7133 22.5878 10.7133Z" fill="#339E72"/>
<path d="M25.9432 12.5476H24.4352C24.1892 12.5476 23.9896 12.3493 23.9896 12.105C23.9896 11.8607 24.1892 11.6624 24.4352 11.6624H25.4976V6.99232C25.4976 4.79005 23.6938 2.99843 21.4763 2.99843H18.8324C18.5864 2.99843 18.3867 2.80016 18.3867 2.55584C18.3867 2.31155 18.5864 2.11328 18.8324 2.11328H21.4763C24.184 2.11328 26.3871 4.30138 26.3871 6.9905V12.1031C26.3871 12.351 26.1892 12.5476 25.9432 12.5476Z" fill="#339E72"/>
<path d="M17.6612 9.05703H4.74645C4.50043 9.05703 4.30078 8.85875 4.30078 8.61443C4.30078 8.37015 4.50043 8.17188 4.74645 8.17188H17.6612C17.9072 8.17188 18.1068 8.37015 18.1068 8.61443C18.1068 8.85875 17.9072 9.05703 17.6612 9.05703Z" fill="#339E72"/>
<path d="M6.25094 12.5453H4.74645C4.50043 12.5453 4.30078 12.347 4.30078 12.1027C4.30078 11.8584 4.50043 11.6602 4.74645 11.6602H6.25094C6.49695 11.6602 6.6966 11.8584 6.6966 12.1027C6.6966 12.3488 6.49695 12.5453 6.25094 12.5453Z" fill="#339E72"/>
<path d="M20.7379 12.5453H9.94954C9.70355 12.5453 9.50391 12.347 9.50391 12.1027C9.50391 11.8584 9.70355 11.6602 9.94954 11.6602H20.7379C20.9839 11.6602 21.1835 11.8584 21.1835 12.1027C21.1835 12.3488 20.9839 12.5453 20.7379 12.5453Z" fill="#339E72"/>
<path d="M18.8381 9.05697H5.50423C5.25824 9.05697 5.05859 8.8587 5.05859 8.61438C5.05859 8.37009 5.25824 8.17355 5.50423 8.17355H18.3924V1.24453H9.012C8.76599 1.24453 8.56634 1.04626 8.56634 0.801967C8.56634 0.557647 8.76599 0.359375 9.012 0.359375H18.8363C19.0823 0.359375 19.282 0.557647 19.282 0.801967V8.61438C19.282 8.86046 19.0841 9.05697 18.8381 9.05697Z" fill="#339E72"/>
<path d="M25.9421 7.9777H21.8011C21.5551 7.9777 21.3555 7.77943 21.3555 7.53514V2.56759C21.3555 2.32327 21.5551 2.125 21.8011 2.125C22.0471 2.125 22.2468 2.32327 22.2468 2.56759V7.09255H25.9421C26.1881 7.09255 26.3877 7.29082 26.3877 7.53514C26.3877 7.77943 26.1881 7.9777 25.9421 7.9777Z" fill="#339E72"/>
<path d="M10.5225 3.01015H4.75032C4.50434 3.01015 4.30469 2.81188 4.30469 2.56759C4.30469 2.32327 4.50434 2.125 4.75032 2.125H10.5225C10.7685 2.125 10.9681 2.32327 10.9681 2.56759C10.9681 2.81188 10.7685 3.01015 10.5225 3.01015Z" fill="#339E72"/>
<path d="M7.98342 7.06484H2.21128C1.96528 7.06484 1.76562 6.86657 1.76562 6.62228C1.76562 6.37796 1.96528 6.17969 2.21128 6.17969H7.98342C8.22941 6.17969 8.42909 6.37796 8.42909 6.62228C8.42909 6.86657 8.22941 7.06484 7.98342 7.06484Z" fill="#339E72"/>
<path d="M9.13724 5.15296H1.05503C0.809027 5.15296 0.609375 4.95465 0.609375 4.71212C0.609375 4.4678 0.809027 4.26953 1.05503 4.26953H9.13724C9.38326 4.26953 9.58291 4.4678 9.58291 4.71212C9.58291 4.95465 9.38326 5.15296 9.13724 5.15296Z" fill="#339E72"/>
</svg>
