<svg width="11" height="12" viewBox="0 0 11 12" fill="none" xmlns="http://www.w3.org/2000/svg">
<path d="M10.4868 6.64169L8.93477 7.56619L7.9376 6.9722L9.1172 6.26953C9.22306 6.20645 9.28828 6.09 9.28828 5.96384C9.28828 5.83777 9.22306 5.72122 9.1172 5.65823L7.87691 4.91931L8.93468 4.28915L10.4868 5.21375C10.5406 5.24588 10.5995 5.26108 10.6575 5.26108C10.7758 5.26108 10.8907 5.19781 10.954 5.08456C11.0485 4.91574 10.9925 4.69986 10.8288 4.60245L9.61889 3.88165L10.4715 3.37363C10.6351 3.27621 10.6912 3.06033 10.5967 2.89151C10.5023 2.72269 10.2931 2.66483 10.1295 2.76242L9.27674 3.27026V1.82867C9.27674 1.63376 9.12359 1.47574 8.93468 1.47574C8.74577 1.47574 8.59262 1.63376 8.59262 1.82867V3.67786L7.56519 4.28989V2.88446C7.56519 2.75839 7.49997 2.64185 7.39412 2.57877C7.28826 2.51578 7.15791 2.51578 7.05206 2.57877L5.84202 3.29956V2.03925L7.39412 1.11465C7.55774 1.01724 7.61382 0.801361 7.51932 0.632538C7.42482 0.463715 7.21568 0.405945 7.05206 0.503357L5.84202 1.22415V0.352936C5.84202 0.15802 5.68887 0 5.49996 0C5.31105 0 5.15789 0.15802 5.15789 0.352936V1.22415L3.94786 0.503357C3.78432 0.405853 3.575 0.463715 3.48059 0.632538C3.38618 0.801361 3.44217 1.01724 3.60579 1.11465L5.15789 2.03925V3.29956L3.94786 2.57877C3.84209 2.51569 3.71165 2.51569 3.60579 2.57877C3.49994 2.64185 3.43481 2.7583 3.43481 2.88446V4.28989L2.40729 3.67776V1.82867C2.40729 1.63376 2.25414 1.47574 2.06523 1.47574C1.87632 1.47574 1.72317 1.63376 1.72317 1.82867V3.27026L0.99184 2.83466C0.828218 2.73715 0.619077 2.79501 0.524577 2.96384C0.430166 3.13266 0.486245 3.34854 0.649778 3.44595L1.38111 3.88156L0.171069 4.60236C0.00744706 4.69986 -0.0485428 4.91565 0.045868 5.08447C0.109223 5.19772 0.224219 5.26108 0.34241 5.26108C0.400441 5.26108 0.45927 5.24579 0.513131 5.21365L2.06523 4.28906L3.12309 4.91931L1.88271 5.65814C1.77685 5.72122 1.71163 5.83768 1.71163 5.96384C1.71163 6.0899 1.77685 6.20645 1.88271 6.26944L3.0624 6.9722L2.06523 7.56619L0.513131 6.6416C0.349509 6.5441 0.140279 6.60196 0.045868 6.77078C-0.0485428 6.93961 0.00744706 7.15549 0.171069 7.2529L1.38111 7.97369L0.649778 8.4093C0.486245 8.50681 0.430166 8.7226 0.524577 8.89142C0.587932 9.00467 0.702928 9.06802 0.821119 9.06802C0.87915 9.06802 0.937979 9.05273 0.99184 9.0206L1.72317 8.58499V10.0267C1.72317 10.2216 1.87632 10.3796 2.06523 10.3796C2.25414 10.3796 2.40729 10.2216 2.40729 10.0267V8.17749L3.43481 7.56537V9.04321C3.43481 9.16928 3.49994 9.28583 3.60579 9.34882C3.71165 9.4119 3.84209 9.4119 3.94786 9.34882L5.15789 8.62811V9.8161L3.60579 10.7407C3.44217 10.8381 3.38618 11.054 3.48059 11.2228C3.57509 11.3916 3.78432 11.4495 3.94786 11.352L5.15789 10.6312V11.6471C5.15789 11.842 5.31105 12 5.49996 12C5.68887 12 5.84202 11.842 5.84202 11.6471V10.6312L7.05206 11.352C7.10592 11.3841 7.16475 11.3993 7.22278 11.3993C7.34097 11.3993 7.45596 11.3361 7.51932 11.2228C7.61382 11.054 7.55774 10.8381 7.39412 10.7407L5.84202 9.8161V8.62811L7.05206 9.34891C7.10494 9.3804 7.16404 9.39624 7.22313 9.39624C7.28214 9.39624 7.34123 9.3804 7.39412 9.34891C7.49997 9.28583 7.56519 9.16937 7.56519 9.0433V7.56546L8.59271 8.17758V10.0268C8.59271 10.2217 8.74586 10.3797 8.93477 10.3797C9.12368 10.3797 9.27683 10.2217 9.27683 10.0268V8.58508L10.1295 9.09302C10.1833 9.12515 10.2421 9.14044 10.3002 9.14044C10.4185 9.14044 10.5334 9.07709 10.5967 8.96384C10.6912 8.79501 10.6351 8.57913 10.4715 8.48172L9.61889 7.97379L10.8289 7.25299C10.9926 7.15558 11.0485 6.9397 10.9541 6.77087C10.8596 6.60196 10.6504 6.54419 10.4868 6.64169ZM8.26209 5.96384L7.25348 6.5647L6.18408 5.92767L7.19278 5.32681L8.26209 5.96384ZM6.88098 3.49576V4.69748L5.84202 5.31638V4.11465L6.88098 3.49576ZM4.11893 3.49576L5.15789 4.11465V5.31638L4.11893 4.69748V3.49576ZM2.73791 5.96384L3.80722 5.32681L4.81583 5.92767L3.74652 6.5647L2.73791 5.96384ZM4.11893 8.43192V7.15787L5.15789 6.53897V7.81302L4.11893 8.43192ZM6.88098 8.43192L5.84202 7.81302V6.53897L6.88107 7.15787V8.43192H6.88098Z" fill="#4488EE"/>
</svg>
